<?xml version="1.0" encoding="utf-8"?>
<!-- Generator: Adobe Illustrator 25.0.1, SVG Export Plug-In . SVG Version: 6.00 Build 0)  -->
<svg version="1.1"
	 id="Layer_1" xmlns:cc="http://creativecommons.org/ns#" xmlns:inkscape="http://www.inkscape.org/namespaces/inkscape"
	 xmlns="http://www.w3.org/2000/svg" xmlns:xlink="http://www.w3.org/1999/xlink" x="0px" y="0px" viewBox="0 0 150.2 164.6"
	 style="enable-background:new 0 0 150.2 164.6;" xml:space="preserve">
<style type="text/css">
	.st0{fill:none;}
	.st1{fill:none;stroke:#231F20;stroke-width:3.6;}
	.st2{fill-rule:evenodd;clip-rule:evenodd;fill:#FFFFFF;stroke:#232323;stroke-width:0.1918;stroke-miterlimit:10;}
	.st3{fill-rule:evenodd;clip-rule:evenodd;fill:#F5F5F5;}
	.st4{fill:url(#SVGID_1_);}
	.st5{font-family:'NotoSans-Regular';}
	.st6{font-size:10px;}
	.st7{font-size:11px;}
	
		.st8{fill-rule:evenodd;clip-rule:evenodd;fill:#FF7F00;stroke:#232323;stroke-width:0.1918;stroke-linecap:square;stroke-linejoin:bevel;stroke-miterlimit:10;}
	
		.st9{fill-rule:evenodd;clip-rule:evenodd;fill:#FDB863;stroke:#232323;stroke-width:0.1918;stroke-linecap:square;stroke-linejoin:bevel;stroke-miterlimit:10;}
	
		.st10{fill-rule:evenodd;clip-rule:evenodd;fill:#D6CEFC;stroke:#232323;stroke-width:0.1918;stroke-linecap:square;stroke-linejoin:bevel;stroke-miterlimit:10;}
	
		.st11{fill-rule:evenodd;clip-rule:evenodd;fill:#ABA5CA;stroke:#232323;stroke-width:0.1918;stroke-linecap:square;stroke-linejoin:bevel;stroke-miterlimit:10;}
	
		.st12{fill-rule:evenodd;clip-rule:evenodd;fill:#7D51CE;stroke:#232323;stroke-width:0.1918;stroke-linecap:square;stroke-linejoin:bevel;stroke-miterlimit:10;}
	.st13{font-family:'Lora-Regular';}
	.st14{font-size:15.8539px;}
</style>
<pattern  y="164.6" width="72" height="72" patternUnits="userSpaceOnUse" id="_x36__lpi_30_x25_" viewBox="72.2 -72 72 72" style="overflow:visible;">
	<g>
		<rect x="72.2" y="-72" class="st0" width="72" height="72"/>
		<g>
			<line class="st1" x1="144" y1="-6" x2="216.5" y2="-6"/>
			<line class="st1" x1="144" y1="-30" x2="216.5" y2="-30"/>
			<line class="st1" x1="144" y1="-54" x2="216.5" y2="-54"/>
			<line class="st1" x1="144" y1="-18" x2="216.5" y2="-18"/>
			<line class="st1" x1="144" y1="-42" x2="216.5" y2="-42"/>
			<line class="st1" x1="144" y1="-66" x2="216.5" y2="-66"/>
		</g>
		<g>
			<line class="st1" x1="72" y1="-6" x2="144.5" y2="-6"/>
			<line class="st1" x1="72" y1="-30" x2="144.5" y2="-30"/>
			<line class="st1" x1="72" y1="-54" x2="144.5" y2="-54"/>
			<line class="st1" x1="72" y1="-18" x2="144.5" y2="-18"/>
			<line class="st1" x1="72" y1="-42" x2="144.5" y2="-42"/>
			<line class="st1" x1="72" y1="-66" x2="144.5" y2="-66"/>
		</g>
		<g>
			<line class="st1" x1="0" y1="-6" x2="72.5" y2="-6"/>
			<line class="st1" x1="0" y1="-30" x2="72.5" y2="-30"/>
			<line class="st1" x1="0" y1="-54" x2="72.5" y2="-54"/>
			<line class="st1" x1="0" y1="-18" x2="72.5" y2="-18"/>
			<line class="st1" x1="0" y1="-42" x2="72.5" y2="-42"/>
			<line class="st1" x1="0" y1="-66" x2="72.5" y2="-66"/>
		</g>
	</g>
</pattern>
<g id="Page" inkscape:groupmode="layer" inkscape:label="Page">
	<g transform="matrix(1,0,0,1,0,0)">
	</g>
	<g transform="matrix(1,0,0,1,0,0)">
	</g>
	<g transform="matrix(11.7961,0,0,11.7961,-2296.56,-673.987)">
	</g>
	<g transform="matrix(0.998739,0,0,0.998739,-2296.56,-673.987)">
	</g>
	<g transform="matrix(0.998739,0,0,0.998739,-2296.56,-673.987)">
		<path vector-effect="none" class="st2" d="M2060.5,373.6h842.9V970h-842.9V373.6"/>
	</g>
	<g transform="matrix(0.998739,0,0,0.998739,-2296.56,-673.987)">
	</g>
	<g transform="matrix(11.7961,0,0,11.7961,-2296.56,-673.987)">
	</g>
	<g transform="matrix(11.7961,0,0,11.7961,-2296.56,-673.987)">
	</g>
	<g transform="matrix(1,0,0,1,0,0)">
	</g>
</g>
<g transform="matrix(1,0,0,1,0,0)">
</g>
<g transform="matrix(1,0,0,1,0,0)">
</g>
<g transform="matrix(11.7961,0,0,11.7961,0,0)">
</g>
<g transform="matrix(11.7961,0,0,11.7961,0,0)">
</g>
<g transform="matrix(11.7961,0,0,11.7961,0,0)">
</g>
<g transform="matrix(11.7961,0,0,11.7961,0,0)">
</g>
<g transform="matrix(0.998739,0,0,0.998739,0,0)">
</g>
<g transform="matrix(11.7961,0,0,11.7961,0,0)">
</g>
<g transform="matrix(0.998739,0,0,0.998739,23.5923,136.78)">
	<path vector-effect="none" class="st0" d="M-18-104.1H2v11.3H-18V-104.1"/>
</g>
<g transform="matrix(11.7961,0,0,11.7961,0,0)">
</g>
<g transform="matrix(11.7961,0,0,11.7961,0,0)">
</g>
<g transform="matrix(11.7961,0,0,11.7961,0,0)">
</g>
<g transform="matrix(11.7961,0,0,11.7961,0,0)">
</g>
<g transform="matrix(11.7961,0,0,11.7961,0,0)">
</g>
<g transform="matrix(11.7961,0,0,11.7961,0,0)">
</g>
<g transform="matrix(11.7961,0,0,11.7961,0,0)">
</g>
<g transform="matrix(11.7961,0,0,11.7961,0,0)">
</g>
<g transform="matrix(11.7961,0,0,11.7961,0,0)">
</g>
<g transform="matrix(11.7961,0,0,11.7961,0,0)">
</g>
<g transform="matrix(11.7961,0,0,11.7961,0,0)">
</g>
<g transform="matrix(11.7961,0,0,11.7961,0,0)">
</g>
<g transform="matrix(11.7961,0,0,11.7961,0,0)">
</g>
<g>
	<path vector-effect="none" class="st3" d="M0,0h150.1v164.6H0V0"/>
	
		<pattern  id="SVGID_1_" xlink:href="#_x36__lpi_30_x25_" patternTransform="matrix(2.000000e-02 0 0 2.000000e-02 -7881.5352 -8177.6938)">
	</pattern>
	<path vector-effect="none" class="st4" d="M5.7,32.8h19.7v11H5.7V32.8"/>
	<g transform="matrix(1.17961,0,0,1.17961,0,0)">
		<text transform="matrix(0.8477 0 0 0.8477 26.3999 36.2963)" class="st5 st6">TIF Projects</text>
	</g>
	<g transform="matrix(1.17961,0,0,1.17961,0,0)">
		<text transform="matrix(0.8477 0 0 0.8477 4.8 54.3711)" class="st5 st7">Change in MHI, 2010-2019</text>
	</g>
	<g transform="matrix(0.998739,0,0,0.998739,23.5923,308.524)">
		<path vector-effect="none" class="st8" d="M-18-234.8H2v11.3H-18V-234.8"/>
	</g>
	<g transform="matrix(1.17961,0,0,1.17961,0,0)">
		<text transform="matrix(0.8477 0 0 0.8477 26.3999 71.2385)" class="st5 st6">-$72,745 - -$9,112</text>
	</g>
	<g transform="matrix(0.998739,0,0,0.998739,23.5923,385.199)">
		<path vector-effect="none" class="st9" d="M-18-293.1H2v11.3H-18V-293.1"/>
	</g>
	<g transform="matrix(1.17961,0,0,1.17961,0,0)">
		<text transform="matrix(0.8477 0 0 0.8477 26.3999 86.8389)" class="st5 st6">-$9,113 - $0</text>
	</g>
	<g transform="matrix(0.998739,0,0,0.998739,23.5923,461.874)">
		<path vector-effect="none" class="st10" d="M-18-351.5H2v11.3H-18V-351.5"/>
	</g>
	<g transform="matrix(1.17961,0,0,1.17961,0,0)">
		<text transform="matrix(0.8477 0 0 0.8477 26.3999 102.4389)" class="st5 st6">+$1 - +$2,812</text>
	</g>
	<g transform="matrix(0.998739,0,0,0.998739,23.5923,538.548)">
		<path vector-effect="none" class="st11" d="M-18-409.8H2v11.3H-18V-409.8"/>
	</g>
	<g transform="matrix(1.17961,0,0,1.17961,0,0)">
		<text transform="matrix(0.8477 0 0 0.8477 26.3999 118.0388)" class="st5 st6">+$2,813 - +$7,632</text>
	</g>
	<g transform="matrix(0.998739,0,0,0.998739,23.5923,615.223)">
		<path vector-effect="none" class="st12" d="M-18-468.2H2v11.3H-18V-468.2"/>
	</g>
	<g transform="matrix(1.17961,0,0,1.17961,0,0)">
		<text transform="matrix(0.8477 0 0 0.8477 26.3999 133.6387)" class="st5 st6">+$7,633 - +$118,652</text>
	</g>
	<g transform="matrix(1.17961,0,0,1.17961,0,0)">
		<text transform="matrix(0.8477 0 0 0.8477 4.8 17.7938)" class="st13 st14">Legend</text>
	</g>
</g>
<g transform="matrix(11.7961,0,0,11.7961,0,0)">
</g>
<g transform="matrix(0.998739,0,0,0.998739,0,0)">
</g>
<g transform="matrix(11.7961,0,0,11.7961,0,0)">
</g>
<g transform="matrix(11.7961,0,0,11.7961,0,0)">
</g>
<g transform="matrix(11.7961,0,0,11.7961,0,0)">
</g>
<g transform="matrix(1,0,0,1,0,0)">
</g>
</svg>
